<?xml version="1.0" standalone="no"?><!DOCTYPE svg PUBLIC "-//W3C//DTD SVG 1.1//EN" "http://www.w3.org/Graphics/SVG/1.1/DTD/svg11.dtd">
<svg preserveAspectRatio="xMinYMin meet" width="100%" height="100%" viewBox="0 0 560.000 420.000"   version="1.1" xmlns="http://www.w3.org/2000/svg" xmlns:xlink="http://www.w3.org/1999/xlink">
  <desc>Matlab Figure Converted by PLOT2SVG written by Juerg Schwizer</desc>
  <rect x="0" y="0" width="560.000" height="420.000" fill="#ffffff" stroke="none" />
  <g>
  <clipPath id="ID000000">
    <rect x="72.800" y="31.500" width="369.000" height="342.300"/>
  </clipPath>
    <g>
<g clip-path="url(#ID000000)">
<image x="72.800" y="31.500" width="369.000" height="342.300" image-rendering="optimizeSpeed" preserveAspectRatio="none" xlink:href="simTestKernelImage001.png" />
</g>
  <g transform="translate(118.464,389.130)">
    <g transform="rotate(-0.0)">
      <text x="0.000" y="0.000" font-family="Helvetica" text-anchor="end" font-size="24.0pt" fill="#000000" >$$f(t)$$</text>
    </g>
  </g>
  <g transform="translate(210.714,389.130)">
    <g transform="rotate(-0.0)">
      <text x="0.000" y="0.000" font-family="Helvetica" text-anchor="end" font-size="24.0pt" fill="#000000" >$$x_1(t)$$</text>
    </g>
  </g>
  <g transform="translate(302.964,389.130)">
    <g transform="rotate(-0.0)">
      <text x="0.000" y="0.000" font-family="Helvetica" text-anchor="end" font-size="24.0pt" fill="#000000" >$$x_2(t)$$</text>
    </g>
  </g>
  <g transform="translate(395.214,389.130)">
    <g transform="rotate(-0.0)">
      <text x="0.000" y="0.000" font-family="Helvetica" text-anchor="end" font-size="24.0pt" fill="#000000" >$$x_3(t)$$</text>
    </g>
  </g>
  <g transform="translate(63.114,81.060)">
    <g transform="rotate(-0.0)">
      <text x="0.000" y="0.000" font-family="Helvetica" text-anchor="middle" font-size="24.0pt" fill="#000000" >$$f(t)$$</text>
    </g>
  </g>
  <g transform="translate(63.114,166.635)">
    <g transform="rotate(-0.0)">
      <text x="0.000" y="0.000" font-family="Helvetica" text-anchor="middle" font-size="24.0pt" fill="#000000" >$$x_1(t)$$</text>
    </g>
  </g>
  <g transform="translate(63.114,252.210)">
    <g transform="rotate(-0.0)">
      <text x="0.000" y="0.000" font-family="Helvetica" text-anchor="middle" font-size="24.0pt" fill="#000000" >$$x_2(t)$$</text>
    </g>
  </g>
  <g transform="translate(63.114,337.785)">
    <g transform="rotate(-0.0)">
      <text x="0.000" y="0.000" font-family="Helvetica" text-anchor="middle" font-size="24.0pt" fill="#000000" >$$x_3(t)$$</text>
    </g>
  </g>
    </g>
  </g>
  <g>
  <clipPath id="ID000001">
    <rect x="461.750" y="29.000" width="25.000" height="343.000"/>
  </clipPath>
      <polyline fill="#ffffff" fill-opacity="1.00" stroke="none" stroke-width="0.5pt" stroke-opacity="1.00" stroke-dasharray="none" points="461.750,372.000 486.750,372.000 486.750,29.000 461.750,29.000 "/>
      <polyline fill="#ffffff" fill-opacity="1.00" stroke="none" stroke-width="0.5pt" stroke-opacity="1.00" stroke-dasharray="none" points="461.750,29.000 486.750,29.000 486.750,29.000 461.750,29.000 "/>
      <polyline fill="#ffffff" fill-opacity="1.00" stroke="none" stroke-width="0.5pt" stroke-opacity="1.00" stroke-dasharray="none" points="461.750,372.000 461.750,372.000 461.750,29.000 461.750,29.000 "/>
    <g>
<g clip-path="url(#ID000001)">
<image x="461.750" y="29.000" width="25.000" height="343.000" image-rendering="optimizeSpeed" preserveAspectRatio="none" xlink:href="simTestKernelImage002.png" />
</g>
    </g>
    <g>
      <polyline fill="none" stroke="#000000" stroke-width="0.5pt" stroke-dasharray="none" points="461.750,372.000 486.750,372.000 "/>
      <polyline fill="none" stroke="#000000" stroke-width="0.5pt" stroke-dasharray="none" points="461.750,29.000 486.750,29.000 "/>
      <polyline fill="none" stroke="#000000" stroke-width="0.5pt" stroke-dasharray="none" points="486.750,356.409 483.320,356.409 "/>
      <polyline fill="none" stroke="#000000" stroke-width="0.5pt" stroke-dasharray="none" points="486.750,325.227 483.320,325.227 "/>
      <polyline fill="none" stroke="#000000" stroke-width="0.5pt" stroke-dasharray="none" points="486.750,294.045 483.320,294.045 "/>
      <polyline fill="none" stroke="#000000" stroke-width="0.5pt" stroke-dasharray="none" points="486.750,262.864 483.320,262.864 "/>
      <polyline fill="none" stroke="#000000" stroke-width="0.5pt" stroke-dasharray="none" points="486.750,231.682 483.320,231.682 "/>
      <polyline fill="none" stroke="#000000" stroke-width="0.5pt" stroke-dasharray="none" points="486.750,200.500 483.320,200.500 "/>
      <polyline fill="none" stroke="#000000" stroke-width="0.5pt" stroke-dasharray="none" points="486.750,169.318 483.320,169.318 "/>
      <polyline fill="none" stroke="#000000" stroke-width="0.5pt" stroke-dasharray="none" points="486.750,138.136 483.320,138.136 "/>
      <polyline fill="none" stroke="#000000" stroke-width="0.5pt" stroke-dasharray="none" points="486.750,106.955 483.320,106.955 "/>
      <polyline fill="none" stroke="#000000" stroke-width="0.5pt" stroke-dasharray="none" points="486.750,75.773 483.320,75.773 "/>
      <polyline fill="none" stroke="#000000" stroke-width="0.5pt" stroke-dasharray="none" points="486.750,44.591 483.320,44.591 "/>
      <polyline fill="none" stroke="#000000" stroke-width="0.5pt" stroke-dasharray="none" points="486.750,372.000 486.750,29.000 "/>
      <polyline fill="none" stroke="#000000" stroke-width="0.5pt" stroke-dasharray="none" points="461.750,356.409 465.180,356.409 "/>
      <polyline fill="none" stroke="#000000" stroke-width="0.5pt" stroke-dasharray="none" points="461.750,325.227 465.180,325.227 "/>
      <polyline fill="none" stroke="#000000" stroke-width="0.5pt" stroke-dasharray="none" points="461.750,294.045 465.180,294.045 "/>
      <polyline fill="none" stroke="#000000" stroke-width="0.5pt" stroke-dasharray="none" points="461.750,262.864 465.180,262.864 "/>
      <polyline fill="none" stroke="#000000" stroke-width="0.5pt" stroke-dasharray="none" points="461.750,231.682 465.180,231.682 "/>
      <polyline fill="none" stroke="#000000" stroke-width="0.5pt" stroke-dasharray="none" points="461.750,200.500 465.180,200.500 "/>
      <polyline fill="none" stroke="#000000" stroke-width="0.5pt" stroke-dasharray="none" points="461.750,169.318 465.180,169.318 "/>
      <polyline fill="none" stroke="#000000" stroke-width="0.5pt" stroke-dasharray="none" points="461.750,138.136 465.180,138.136 "/>
      <polyline fill="none" stroke="#000000" stroke-width="0.5pt" stroke-dasharray="none" points="461.750,106.955 465.180,106.955 "/>
      <polyline fill="none" stroke="#000000" stroke-width="0.5pt" stroke-dasharray="none" points="461.750,75.773 465.180,75.773 "/>
      <polyline fill="none" stroke="#000000" stroke-width="0.5pt" stroke-dasharray="none" points="461.750,44.591 465.180,44.591 "/>
      <polyline fill="none" stroke="#000000" stroke-width="0.5pt" stroke-dasharray="none" points="461.750,372.000 461.750,29.000 "/>
  <g transform="translate(487.250,359.409)">
    <g transform="rotate(-0.0)">
      <text x="0.000" y="0.000" font-family="Helvetica" text-anchor="start" font-size="10.0pt" fill="#000000" >-1</text>
    </g>
  </g>
  <g transform="translate(487.250,328.227)">
    <g transform="rotate(-0.0)">
      <text x="0.000" y="0.000" font-family="Helvetica" text-anchor="start" font-size="10.0pt" fill="#000000" >-0.8</text>
    </g>
  </g>
  <g transform="translate(487.250,297.045)">
    <g transform="rotate(-0.0)">
      <text x="0.000" y="0.000" font-family="Helvetica" text-anchor="start" font-size="10.0pt" fill="#000000" >-0.6</text>
    </g>
  </g>
  <g transform="translate(487.250,265.864)">
    <g transform="rotate(-0.0)">
      <text x="0.000" y="0.000" font-family="Helvetica" text-anchor="start" font-size="10.0pt" fill="#000000" >-0.4</text>
    </g>
  </g>
  <g transform="translate(487.250,234.682)">
    <g transform="rotate(-0.0)">
      <text x="0.000" y="0.000" font-family="Helvetica" text-anchor="start" font-size="10.0pt" fill="#000000" >-0.2</text>
    </g>
  </g>
  <g transform="translate(487.250,203.500)">
    <g transform="rotate(-0.0)">
      <text x="0.000" y="0.000" font-family="Helvetica" text-anchor="start" font-size="10.0pt" fill="#000000" >0</text>
    </g>
  </g>
  <g transform="translate(487.250,172.318)">
    <g transform="rotate(-0.0)">
      <text x="0.000" y="0.000" font-family="Helvetica" text-anchor="start" font-size="10.0pt" fill="#000000" >0.2</text>
    </g>
  </g>
  <g transform="translate(487.250,141.136)">
    <g transform="rotate(-0.0)">
      <text x="0.000" y="0.000" font-family="Helvetica" text-anchor="start" font-size="10.0pt" fill="#000000" >0.4</text>
    </g>
  </g>
  <g transform="translate(487.250,109.955)">
    <g transform="rotate(-0.0)">
      <text x="0.000" y="0.000" font-family="Helvetica" text-anchor="start" font-size="10.0pt" fill="#000000" >0.6</text>
    </g>
  </g>
  <g transform="translate(487.250,78.773)">
    <g transform="rotate(-0.0)">
      <text x="0.000" y="0.000" font-family="Helvetica" text-anchor="start" font-size="10.0pt" fill="#000000" >0.8</text>
    </g>
  </g>
  <g transform="translate(487.250,47.591)">
    <g transform="rotate(-0.0)">
      <text x="0.000" y="0.000" font-family="Helvetica" text-anchor="start" font-size="10.0pt" fill="#000000" >1</text>
    </g>
  </g>
      <polyline fill="none" stroke="#000000" stroke-width="0.5pt" stroke-dasharray="none" points="461.750,372.000 461.750,368.570 "/>
      <polyline fill="none" stroke="#000000" stroke-width="0.5pt" stroke-dasharray="none" points="461.750,372.000 461.750,372.000 "/>
    </g>
  </g>
</svg>
